<svg width="82" height="18" viewBox="0 0 82 18" fill="none" xmlns="http://www.w3.org/2000/svg">
<path d="M15.9688 7H11.5625C11.5313 6.63542 11.4479 6.30469 11.3125 6.00781C11.1823 5.71094 11 5.45573 10.7656 5.24219C10.5365 5.02344 10.2578 4.85677 9.92969 4.74219C9.60156 4.6224 9.22917 4.5625 8.8125 4.5625C8.08333 4.5625 7.46615 4.73958 6.96094 5.09375C6.46094 5.44792 6.08073 5.95573 5.82031 6.61719C5.5651 7.27865 5.4375 8.07292 5.4375 9C5.4375 9.97917 5.56771 10.7995 5.82813 11.4609C6.09375 12.1172 6.47656 12.612 6.97656 12.9453C7.47656 13.2734 8.07813 13.4375 8.78125 13.4375C9.18229 13.4375 9.54167 13.388 9.85938 13.2891C10.1771 13.1849 10.4531 13.0365 10.6875 12.8438C10.9219 12.651 11.112 12.4193 11.2578 12.1484C11.4089 11.8724 11.5104 11.5625 11.5625 11.2187L15.9688 11.25C15.9167 11.9271 15.7266 12.6172 15.3984 13.3203C15.0703 14.0182 14.6042 14.6641 14 15.2578C13.401 15.8464 12.6589 16.3203 11.7734 16.6797C10.888 17.0391 9.85938 17.2187 8.6875 17.2187C7.21875 17.2187 5.90104 16.9036 4.73438 16.2734C3.57292 15.6432 2.65365 14.7161 1.97656 13.4922C1.30469 12.2682 0.96875 10.7708 0.96875 9C0.96875 7.21875 1.3125 5.71875 2 4.5C2.6875 3.27604 3.61458 2.35156 4.78125 1.72656C5.94792 1.09635 7.25 0.781249 8.6875 0.781249C9.69792 0.781249 10.6276 0.91927 11.4766 1.19531C12.3255 1.47135 13.0703 1.875 13.7109 2.40625C14.3516 2.93229 14.8672 3.58073 15.2578 4.35156C15.6484 5.1224 15.8854 6.00521 15.9688 7ZM27.7988 17L22.8926 10.5312H22.2832V17H17.9395V1H22.2832V7.03125H22.8457L27.4395 1H32.9082L26.8145 8.6875L33.252 17H27.7988ZM33.9805 4.5V1H47.8867V4.5H43.0742V17H38.793V4.5H33.9805ZM53.1465 1V2.875C53.1465 3.38542 53.0423 3.89583 52.834 4.40625C52.6309 4.91146 52.3704 5.38281 52.0527 5.82031C51.7402 6.2526 51.4173 6.61458 51.084 6.90625L49.3027 6C49.5215 5.625 49.7168 5.1901 49.8887 4.69531C50.0605 4.20052 50.1465 3.59375 50.1465 2.875V1H53.1465ZM55.2031 17V13.875L61.1719 8.9375C61.5677 8.60937 61.9063 8.30208 62.1875 8.01562C62.474 7.72396 62.6927 7.42448 62.8438 7.11719C63 6.8099 63.0781 6.46875 63.0781 6.09375C63.0781 5.68229 62.9896 5.33073 62.8125 5.03906C62.6406 4.7474 62.401 4.52344 62.0938 4.36719C61.7865 4.20573 61.4323 4.125 61.0313 4.125C60.6302 4.125 60.276 4.20573 59.9688 4.36719C59.6667 4.52865 59.4323 4.76562 59.2656 5.07812C59.099 5.39062 59.0156 5.77083 59.0156 6.21875H54.8906C54.8906 5.09375 55.1432 4.125 55.6484 3.3125C56.1536 2.5 56.8672 1.875 57.7891 1.4375C58.7109 1 59.7917 0.781249 61.0313 0.781249C62.3125 0.781249 63.4219 0.986979 64.3594 1.39844C65.3021 1.80469 66.0286 2.3776 66.5391 3.11719C67.0547 3.85677 67.3125 4.72396 67.3125 5.71875C67.3125 6.33333 67.1849 6.94531 66.9297 7.55469C66.6745 8.15885 66.2161 8.82812 65.5547 9.5625C64.8932 10.2969 63.9531 11.1719 62.7344 12.1875L61.2344 13.4375V13.5313H67.4844V17H55.2031ZM69.4258 17V13.875L75.3945 8.9375C75.7904 8.60937 76.1289 8.30208 76.4102 8.01562C76.6966 7.72396 76.9154 7.42448 77.0664 7.11719C77.2227 6.8099 77.3008 6.46875 77.3008 6.09375C77.3008 5.68229 77.2122 5.33073 77.0352 5.03906C76.8633 4.7474 76.6237 4.52344 76.3164 4.36719C76.0091 4.20573 75.6549 4.125 75.2539 4.125C74.8529 4.125 74.4987 4.20573 74.1914 4.36719C73.8893 4.52865 73.6549 4.76562 73.4883 5.07812C73.3216 5.39062 73.2383 5.77083 73.2383 6.21875H69.1133C69.1133 5.09375 69.3659 4.125 69.8711 3.3125C70.3763 2.5 71.0898 1.875 72.0117 1.4375C72.9336 1 74.0143 0.781249 75.2539 0.781249C76.5352 0.781249 77.6445 0.986979 78.582 1.39844C79.5247 1.80469 80.2513 2.3776 80.7617 3.11719C81.2773 3.85677 81.5352 4.72396 81.5352 5.71875C81.5352 6.33333 81.4076 6.94531 81.1523 7.55469C80.8971 8.15885 80.4388 8.82812 79.7773 9.5625C79.1159 10.2969 78.1758 11.1719 76.957 12.1875L75.457 13.4375V13.5313H81.707V17H69.4258Z" fill="black"/>
</svg>
